<?xml version="1.0" encoding="UTF-8"?>
<svg version="1.1" viewBox="0 0 2048 396" width="1280" height="1280" xmlns="http://www.w3.org/2000/svg">
<path transform="translate(466,45)" d="m0 0h29l5 8 16 29 13 23 40 72 14 25v2h-29l-10-18-10-20h-108l-15 29-5 9h-380l-5-4-2-8 3-7 6-3 363-1 12-22 16-29 13-24 13-23 16-30zm13 19-17 33-12 22-12 23v2l58 1 26-1-2-6-18-34-13-25-8-15z" fill="#E20821"/>
<path transform="translate(832,45)" d="m0 0h140l11 4 6 5 4 7 1 5v55l-3 9-5 6-8 4-8 2-31 1 14 12 11 9 10 9 11 9 14 12 11 9v1h-40l-9-9-8-7-11-11-8-7-16-16-8-7-4-4-47-1v62h-27zm27 21v55h99l6-3 3-5 1-6v-28l-3-9-4-3-3-1z" fill="#E20720"/>
<path transform="translate(1567,45)" d="m0 0h445l5 5 1 2v7l-4 6-2 1-271 1h-74v136l-1 1h-26l-1-137-72-1z" fill="#7C2130"/>
<path transform="translate(1386,45)" d="m0 0h154v21h-127l1 44 77 1v20l-1 1h-76l-1 50h128l1 1v20l-1 1h-154l-1-1z" fill="#7E2433"/>
<path transform="translate(635,45)" d="m0 0h152v21l-1 1h-124v51h71v22h-71v64h-27z" fill="#E20C25"/>
<path transform="translate(1279,45)" d="m0 0h27v129l-2 12-5 10-8 5-6 2-7 1h-84l-10-2-8-4-4-5-4-11-1-7v-40l6-2 18-4h3v53h85z" fill="#7F202F"/>
<path transform="translate(1068,45)" d="m0 0h26l1 4v154l-1 1h-26z" fill="#E10922"/>
<path transform="translate(980,300)" d="m0 0h13l5 3 1-3h6l1 1v59l-1 1h-6l-1-1-1-18-8 3-10-1-6-5-4-9v-16l4-9zm4 6-5 4-3 9v7l3 8 4 4 7 1 6-3 2-2v-23l-4-4-2-1z" fill="#982428"/>
<path transform="translate(829,285)" d="m0 0h6l4 8 14 37 5 14h-8l-5-12-1-2-25-1-1 5-4 10h-8l3-9 18-47zm2 11-9 25v1h20l-9-26z" fill="#941F22"/>
<path transform="translate(659,282)" d="m0 0h7l1 1v29l-1 32h-6l-1-3-9 4h-7l-6-3-5-6-2-5v-18l4-8 5-4 9-2 9 3 1 1zm-14 24-6 5-2 6v11l4 8 3 2h9l6-5v-21l-4-5-3-1z" fill="#932628"/>
<path transform="translate(1718,300)" d="m0 0h13l6 4 4 8 1 5v7h-30l3 9 5 4 7 1 7-3 4-2 3 3-2 4-7 4-3 1h-9l-7-3-5-5-3-6-1-5v-7l3-10 5-6zm2 6-5 4-3 6v2h22l-1-7-5-5z" fill="#932325"/>
<path transform="translate(297,299)" d="m0 0 9 2 6 5 3 7v11h-29l2 8 5 5 8 1 10-5 3 2-1 4-5 4-6 2h-8l-8-3-6-7-2-7v-12l4-9 7-6zm-4 7-5 5-2 4v3h22l-1-6-4-5-2-1z" fill="#922022"/>
<path transform="translate(475,300)" d="m0 0h13l6 4 4 6 2 12v2h-30l3 9 4 4 8 1 10-5 4 4-7 6-6 2h-8l-8-3-5-6-3-8v-10l3-9 6-7zm2 6-5 5-2 7h22l-1-6-5-6z" fill="#921F21"/>
<path transform="translate(1400,300)" d="m0 0h13l6 4 4 7 1 3v10l-29 1 3 9 4 3 7 1 7-3 4-2 3 2-1 4-5 4-6 2h-8l-8-3-6-7-2-6v-13l4-9 7-6zm2 6-5 5-2 4v3h22l-2-8-5-4z" fill="#901F21"/>
<path transform="translate(1089,300)" d="m0 0h13l6 4 4 7 2 13-30 1 3 9 4 3 8 1 10-5 3 2-1 4-5 4-6 2h-8l-8-3-6-7-2-6v-13l4-9 7-6zm2 6-5 5-2 4v3h22l-2-8-5-4z" fill="#921F21"/>
<path transform="translate(696,300)" d="m0 0h13l5 3 4 5 2 4 1 12h-30l4 12 7 2 8-1 6-4 4 4-6 6-7 2h-8l-7-3-5-5-3-6-1-5v-7l3-10 5-6zm2 6-6 7-1 5h22l-1-7-5-5z" fill="#922022"/>
<path transform="translate(1563,300)" d="m0 0h14l6 4 5 6 2 6v12l-3 8-4 5-5 3-4 1h-8l-7-3-5-5-3-6-1-4v-10l3-9 8-7zm3 6-6 5-2 5v13l3 6 4 3 7 1 6-3 3-4 1-3v-14l-4-6-4-3z" fill="#931F21"/>
<path transform="translate(1221,299)" d="m0 0 10 2 6 5 4 8 1 11-3 10-6 7-8 3h-8l-8-4-5-6-2-5v-16l4-8 6-5zm-4 7-5 4-3 8v8l2 7 5 5 8 1 5-3 4-5 1-5v-9l-4-8-5-3z" fill="#932224"/>
<path transform="translate(515,300)" d="m0 0h7l1 1 1 33 2 3h10l4-2 1-2 1-33h7l1 1v42l-1 1h-6l-2-2-8 3h-8l-6-3-4-8z" fill="#982427"/>
<path transform="translate(1607,300)" d="m0 0h7l1 33 3 4 5 1 7-2 2-2 1-33 1-1h7v44h-7v-3l-10 4h-7l-6-3-4-6-1-5v-30z" fill="#951E21"/>
<path transform="translate(421,300)" d="m0 0h13l7 4 4 5 2 5 1 9-2 10-4 6-5 4-6 2h-8l-8-4-5-6-2-5v-15l5-10 5-4zm2 6-5 4-3 9v8l3 7 4 4 7 1 5-2 5-6 1-4v-10l-4-8-4-3z" fill="#912022"/>
<path transform="translate(1258,300)" d="m0 0h7l1 1v29l2 6 1 1h10l5-4 1-33h7l1 1v42l-1 1h-7v-3l-5 3-4 1h-8l-7-4-3-7z" fill="#982F31"/>
<path transform="translate(1456,299)" d="m0 0 9 2 6 5 2 7h-8l-3-5-2-1h-8l-4 3 1 5 7 3 10 3 6 5 1 2v8l-6 7-6 2h-9l-8-3-5-6-1-5h8l3 5 5 2 8-1 2-2v-6l-7-3-12-4-5-5v-9l5-6 4-2z" fill="#922022"/>
<path transform="translate(1326,299)" d="m0 0 10 2 6 5 2 4v3h-8l-3-5-2-1h-8l-4 4 1 4 7 3 12 4 5 6v8l-5 6-8 3h-8l-8-3-5-6-1-5 7-1 4 6 5 2 8-1 3-5-2-4-18-6-5-6v-8l5-6 4-2z" fill="#932022"/>
<path transform="translate(1025,300)" d="m0 0h7l1 32 3 5 6 1 7-3 2-3 1-32h7l1 2-1 42h-7v-3l-5 3-4 1h-8l-6-3-3-4-1-3z" fill="#902021"/>
<path transform="translate(375,299)" d="m0 0 11 2 7 8 1 6-6 1-6-8-1-1h-9l-5 5-1 3v15l3 5 5 3 7-1 5-5 1-2h7l-1 6-5 5-4 3-4 1h-8l-8-4-5-6-2-6v-13l4-10 6-5z" fill="#952023"/>
<path transform="translate(229,285)" d="m0 0h8l1 52 27 1v6h-35l-1-1z" fill="#921F22"/>
<path transform="translate(886,281)" d="m0 0h8l1 1v6l-10 2-2 10h9l1 2-1 4h-9v38h-8v-38h-6v-6h6l1-11 5-6z" fill="#951F22"/>
<path transform="translate(1153,300)" d="m0 0h7l4 10 7 22 11-32h7l1 2-11 30-5 12h-5l-3-5-13-36z" fill="#931F21"/>
<path transform="translate(1655,300)" d="m0 0h8l11 32 10-31 1-1h7l-2 9-12 33-1 2h-6l-7-18-9-25z" fill="#931F21"/>
<path transform="translate(1797,290)" d="m0 0h8v10h8l1 2-1 4h-8l1 32h7l1 4-2 3h-8l-5-4-1-2-1-32-8-1 1-6h7z" fill="#902122"/>
<path transform="translate(1493,290)" d="m0 0h7v10h8v6h-8l1 32h7l1 2-2 5h-7l-5-3-2-3-1-32-7-1-1-5 1-1h8z" fill="#8F1F21"/>
<path transform="translate(1776,299)" d="m0 0 3 1v7l-10 2-3 3-1 32h-8v-44h8l1 3 4-3z" fill="#971F23"/>
<path transform="translate(765,282)" d="m0 0h7l1 1-1 61h-7z" fill="#8E2627"/>
<path transform="translate(587,299)" d="m0 0 2 1v7l-10 2-2 3-1 32h-8v-44h7l2 3 4-3z" fill="#941F22"/>
<path transform="translate(927,299)" d="m0 0 2 1v7l-10 2-2 2-1 17v16h-8v-44h7l1 3 4-3z" fill="#922929"/>
<path transform="translate(944,300)" d="m0 0h7v44h-7z" fill="#892125"/>
<path transform="translate(792,282)" d="m0 0h7v10l-4 8-4 2-3-4 3-8z" fill="#941E21"/>
<path transform="translate(947,284)" d="m0 0 5 2v5l-2 2h-5l-2-2 1-5z" fill="#9A2427"/>
<path transform="translate(659,282)" d="m0 0h7v9l-3-3h-2l-2 4z" fill="#7E212E"/>
<path transform="translate(515,300)" d="m0 0h7l-1 3-5-1v13h-1z" fill="#952434"/>
</svg>
